<!-- icon666.com - MILLIONS OF FREE VECTOR ICONS --><svg viewBox="0 -8 512 511" xmlns="http://www.w3.org/2000/svg"><path d="m437 90.5h-15v135c0 57.890625-47.109375 105-105 105h-109.855469l-57.585937 44.367188c12.773437 9.773437 28.578125 15.632812 45.441406 15.632812h120.066406l136.933594 105.496094v-107.003906c34.1875-6.972657 60-37.265626 60-73.492188v-150c0-41.351562-33.648438-75-75-75zm0 0"></path><path d="m196.933594 300.5h120.066406c41.351562 0 75-33.648438 75-75v-150c0-41.351562-33.648438-75-75-75h-242c-41.351562 0-75 33.648438-75 75v150c0 36.226562 25.8125 66.519531 60 73.492188v107.003906zm-106.933594-225h212v30h-212zm0 60h212v30h-212zm0 60h152v30h-152zm0 0"></path></svg>