<!-- icon666.com - MILLIONS OF FREE VECTOR ICONS --><svg viewBox="0 -8 512 512" xmlns="http://www.w3.org/2000/svg"><path d="m437 90h-45v-15c0-41.355469-33.644531-75-75-75h-242c-41.355469 0-75 33.644531-75 75v151c0 36.578125 26.046875 66.652344 60 73.507812v106.984376l69.671875-53.675782c13.519531 23.9375 38.609375 38.183594 65.328125 38.183594h120.070312l136.929688 105.492188v-106.984376c33.921875-6.851562 60-36.890624 60-73.507812v-151c0-41.355469-33.644531-75-75-75zm-362 181c-24.871094 0-45-20.125-45-45v-151c0-24.8125 20.1875-45 45-45h242c24.8125 0 45 20.1875 45 45v151c0 24.8125-20.1875 45-45 45h-130.289062l-96.710938 74.507812v-74.507812zm407 45c0 24.871094-20.128906 45-45 45h-15v74.507812l-96.710938-74.507812h-130.289062c-17.964844 0-34.0625-10.859375-41.15625-26.804688l43.085938-33.195312h120.070312c41.355469 0 75-33.644531 75-75v-106h45c24.8125 0 45 20.1875 45 45zm0 0"></path><path d="m90 75h212v30h-212zm0 0"></path><path d="m90 196h152v30h-152zm0 0"></path><path d="m90 136h212v30h-212zm0 0"></path></svg>