<!-- icon666.com - MILLIONS OF FREE VECTOR ICONS --><svg id="Layer_1" enable-background="new 0 0 511.449 511.449" viewBox="0 0 511.449 511.449" xmlns="http://www.w3.org/2000/svg"><path d="m255.722 191.392c-11.947 0-21.667 9.72-21.667 21.666 0 11.947 9.72 21.667 21.667 21.667 11.946 0 21.666-9.72 21.666-21.667s-9.72-21.666-21.666-21.666z"></path><path d="m436.508 74.941c-99.912-99.914-261.639-99.93-361.566 0-99.914 99.912-99.93 261.639 0 361.566 99.912 99.914 261.639 99.93 361.566 0 99.914-99.911 99.929-261.638 0-361.566zm-95.45 287.117c-11.598 0-21-9.402-21-21 0-35.474-28.859-64.333-64.333-64.333s-64.333 28.859-64.333 64.333c0 11.598-9.402 21-21 21s-21-9.402-21-21c0-39.466 21.614-73.978 53.625-92.324-28.475-41.933 1.604-99.342 52.705-99.342 51.09 0 81.182 57.4 52.706 99.339 32.014 18.346 53.63 52.859 53.63 92.327 0 11.597-9.403 21-21 21z"></path></svg>